<svg width="200" height="333" viewBox="0 0 200 333" fill="none" xmlns="http://www.w3.org/2000/svg">
<rect width="200" height="333" rx="25" fill="#D9D9D9"/>
<path d="M96.8583 237.641V247.602C95.2248 247.886 93.7777 248.41 92.517 249.174C91.2386 249.937 90.1555 250.887 89.2678 252.024C88.38 253.16 87.7141 254.456 87.2702 255.912C86.8086 257.35 86.5778 258.904 86.5778 260.573C86.5778 263.538 87.3235 266.166 88.815 268.456C90.2887 270.747 92.4549 272.54 95.3136 273.836C98.1545 275.133 101.626 275.781 105.727 275.781C109.9 275.781 113.415 275.133 116.274 273.836C119.115 272.522 121.263 270.729 122.719 268.456C124.158 266.166 124.877 263.547 124.877 260.6C124.877 258.966 124.664 257.439 124.238 256.019C123.794 254.58 123.146 253.293 122.293 252.157C121.441 251.003 120.393 250.035 119.151 249.254C117.908 248.455 116.487 247.904 114.889 247.602L114.942 237.641C117.535 238.014 119.967 238.822 122.24 240.065C124.513 241.29 126.519 242.897 128.259 244.886C129.982 246.874 131.331 249.2 132.308 251.864C133.266 254.527 133.746 257.483 133.746 260.733C133.746 265.527 132.636 269.806 130.417 273.57C128.197 277.334 124.992 280.299 120.802 282.466C116.612 284.632 111.587 285.715 105.727 285.715C99.8501 285.715 94.8253 284.623 90.6527 282.439C86.4624 280.255 83.2575 277.281 81.038 273.517C78.8185 269.753 77.7088 265.491 77.7088 260.733C77.7088 257.696 78.1349 254.873 78.9872 252.263C79.8395 249.653 81.0913 247.327 82.7425 245.285C84.3761 243.243 86.3825 241.565 88.7617 240.252C91.1232 238.92 93.8221 238.05 96.8583 237.641ZM133 228.593H78.4545V218.712H101.546V193.436H78.4545L78.4545 183.529H133V193.436H109.829V218.712H133V228.593ZM133 165.778V176.324L78.4545 157.122V144.924L133 125.694V136.241L89.6406 150.81V151.236L133 165.778ZM111.613 165.431V136.667H119.55V165.431H111.613ZM65.484 145.669V138.824C67.9876 138.824 70.0295 139.943 71.6097 142.18C73.1722 144.417 73.9535 147.454 73.9535 151.289C73.9535 155.071 73.1722 158.089 71.6097 160.344C70.0295 162.599 67.9876 163.718 65.484 163.7V156.909C66.5671 156.926 67.5082 156.509 68.3072 155.657C69.0884 154.805 69.479 153.349 69.479 151.289C69.479 149.283 69.0884 147.844 68.3072 146.974C67.5259 146.104 66.5849 145.669 65.484 145.669ZM54.2979 144.551L55.5497 140.369C57.3253 140.387 58.87 140.982 60.1839 142.154C61.4979 143.308 62.1548 144.773 62.1548 146.548C62.1548 147.88 61.9506 148.99 61.5423 149.877C61.1161 150.765 60.6989 151.609 60.2905 152.408C59.8821 153.189 59.6779 154.112 59.6779 155.177C59.6779 155.888 59.9798 156.509 60.5835 157.042C61.1694 157.574 61.9151 157.841 62.8207 157.841L61.7287 161.996C59.9709 161.996 58.4084 161.419 57.0412 160.264C55.674 159.11 54.9904 157.628 54.9904 155.817C54.9904 155.018 55.1147 154.272 55.3633 153.579C55.6119 152.869 55.9048 152.177 56.2422 151.502C56.5795 150.827 56.8725 150.144 57.1211 149.451C57.3697 148.741 57.494 147.986 57.494 147.187C57.494 146.513 57.1921 145.909 56.5884 145.376C55.967 144.844 55.2035 144.568 54.2979 144.551ZM78.4545 73.6855H133V82.4746L95.8462 108.176V108.629H133V118.51H78.4545V109.667L115.635 83.9927V83.5133H78.4545V73.6855Z" fill="black"/>
</svg>
