<svg width="200" height="333" viewBox="0 0 200 333" fill="none" xmlns="http://www.w3.org/2000/svg">
<rect width="200" height="333" rx="25" fill="#D9D9D9"/>
<path d="M133 217.73H78.4545V207.849H124.717V183.826H133V217.73ZM133 175.25H78.4545V139.774H86.7376V165.369H101.546L101.546 141.611H109.829L109.829 165.369H124.717V139.561H133V175.25ZM72.7017 153.783V161.134L67.5881 161.507C67.517 159.625 67.2773 158.293 66.869 157.512C66.4428 156.73 65.8569 156.349 65.1111 156.366C64.1523 156.349 63.4865 156.864 63.1136 157.911C62.7408 158.959 62.5543 160.255 62.5543 161.8L57.7869 161.56C57.7869 157.157 58.4261 153.818 59.7045 151.546C60.983 149.273 62.723 148.146 64.9247 148.163C66.6115 148.146 67.8722 148.723 68.7067 149.894C69.5234 151.066 70.0383 152.362 70.2514 153.783H72.7017Z" fill="black"/>
</svg>

