<svg width="322" height="133" viewBox="0 0 322 133" fill="none" xmlns="http://www.w3.org/2000/svg">
<rect width="322" height="133" rx="20" fill="#D9D9D9"/>
<path d="M86.0909 48.6364L94.0987 61.9531H94.3828L102.426 48.6364H109.937L98.733 66.8182L110.114 85H102.479L94.3828 71.772H94.0987L86.0021 85H78.4027L89.8906 66.8182L78.5447 48.6364H86.0909ZM146.283 66.8182C146.283 70.7363 145.549 74.0921 144.081 76.8857C142.625 79.6674 140.636 81.7981 138.115 83.2777C135.606 84.7573 132.759 85.4972 129.575 85.4972C126.39 85.4972 123.538 84.7573 121.016 83.2777C118.507 81.7862 116.518 79.6496 115.05 76.8679C113.594 74.0743 112.866 70.7244 112.866 66.8182C112.866 62.9001 113.594 59.5502 115.05 56.7685C116.518 53.9749 118.507 51.8383 121.016 50.3587C123.538 48.879 126.39 48.1392 129.575 48.1392C132.759 48.1392 135.606 48.879 138.115 50.3587C140.636 51.8383 142.625 53.9749 144.081 56.7685C145.549 59.5502 146.283 62.9001 146.283 66.8182ZM139.66 66.8182C139.66 64.0601 139.228 61.7341 138.364 59.8402C137.511 57.9344 136.328 56.4962 134.812 55.5256C133.297 54.5431 131.551 54.0518 129.575 54.0518C127.598 54.0518 125.852 54.5431 124.337 55.5256C122.821 56.4962 121.632 57.9344 120.768 59.8402C119.915 61.7341 119.489 64.0601 119.489 66.8182C119.489 69.5762 119.915 71.9081 120.768 73.8139C121.632 75.7079 122.821 77.1461 124.337 78.1286C125.852 79.0992 127.598 79.5845 129.575 79.5845C131.551 79.5845 133.297 79.0992 134.812 78.1286C136.328 77.1461 137.511 75.7079 138.364 73.8139C139.228 71.9081 139.66 69.5762 139.66 66.8182ZM127.107 45.0497L131.084 36.9354H137.369L131.918 45.0497H127.107ZM183.636 60.9055H176.996C176.806 59.8165 176.457 58.8518 175.948 58.0114C175.439 57.1591 174.806 56.437 174.048 55.8452C173.291 55.2533 172.426 54.8094 171.456 54.5135C170.497 54.2057 169.461 54.0518 168.349 54.0518C166.372 54.0518 164.62 54.549 163.093 55.5433C161.566 56.5258 160.37 57.9699 159.506 59.8757C158.642 61.7696 158.21 64.0838 158.21 66.8182C158.21 69.5999 158.642 71.9437 159.506 73.8494C160.382 75.7434 161.578 77.1757 163.093 78.1463C164.62 79.1051 166.366 79.5845 168.331 79.5845C169.42 79.5845 170.438 79.4425 171.385 79.1584C172.344 78.8625 173.202 78.4304 173.959 77.8622C174.729 77.294 175.374 76.5956 175.895 75.767C176.427 74.9384 176.794 73.9915 176.996 72.9261L183.636 72.9616C183.388 74.6899 182.849 76.3116 182.02 77.8267C181.204 79.3419 180.132 80.6795 178.807 81.8395C177.481 82.9877 175.93 83.8873 174.155 84.5384C172.379 85.1776 170.408 85.4972 168.242 85.4972C165.046 85.4972 162.193 84.7573 159.684 83.2777C157.174 81.7981 155.198 79.6615 153.753 76.8679C152.309 74.0743 151.587 70.7244 151.587 66.8182C151.587 62.9001 152.315 59.5502 153.771 56.7685C155.227 53.9749 157.21 51.8383 159.719 50.3587C162.229 48.879 165.07 48.1392 168.242 48.1392C170.266 48.1392 172.148 48.4233 173.888 48.9915C175.628 49.5597 177.179 50.3942 178.54 51.495C179.902 52.584 181.02 53.9216 181.896 55.5078C182.784 57.0821 183.364 58.8814 183.636 60.9055ZM209.653 48.6364L209.067 74.3111H203.349L202.781 48.6364H209.653ZM206.208 85.3906C205.131 85.3906 204.208 85.0118 203.438 84.2543C202.681 83.4967 202.302 82.5734 202.302 81.4844C202.302 80.419 202.681 79.5076 203.438 78.75C204.208 77.9924 205.131 77.6136 206.208 77.6136C207.262 77.6136 208.173 77.9924 208.942 78.75C209.724 79.5076 210.114 80.419 210.114 81.4844C210.114 82.2064 209.931 82.8634 209.564 83.4553C209.209 84.0471 208.735 84.5206 208.143 84.8757C207.563 85.219 206.918 85.3906 206.208 85.3906ZM225.082 48.6364L224.496 74.3111H218.779L218.211 48.6364H225.082ZM221.638 85.3906C220.561 85.3906 219.637 85.0118 218.868 84.2543C218.11 83.4967 217.732 82.5734 217.732 81.4844C217.732 80.419 218.11 79.5076 218.868 78.75C219.637 77.9924 220.561 77.6136 221.638 77.6136C222.691 77.6136 223.603 77.9924 224.372 78.75C225.153 79.5076 225.544 80.419 225.544 81.4844C225.544 82.2064 225.361 82.8634 224.994 83.4553C224.638 84.0471 224.165 84.5206 223.573 84.8757C222.993 85.219 222.348 85.3906 221.638 85.3906ZM240.512 48.6364L239.926 74.3111H234.209L233.641 48.6364H240.512ZM237.067 85.3906C235.99 85.3906 235.067 85.0118 234.298 84.2543C233.54 83.4967 233.161 82.5734 233.161 81.4844C233.161 80.419 233.54 79.5076 234.298 78.75C235.067 77.9924 235.99 77.6136 237.067 77.6136C238.121 77.6136 239.032 77.9924 239.802 78.75C240.583 79.5076 240.974 80.419 240.974 81.4844C240.974 82.2064 240.79 82.8634 240.423 83.4553C240.068 84.0471 239.595 84.5206 239.003 84.8757C238.423 85.219 237.778 85.3906 237.067 85.3906Z" fill="black"/>
</svg>
